<?xml version="1.0" encoding="UTF-8"?>
<svg id="Layer_2" data-name="Layer 2" xmlns="http://www.w3.org/2000/svg" viewBox="0 0 41.25 66.71">
  <defs>
    <style>
      .cls-1 {
        fill: #fff;
        stroke-width: 0px;
      }
    </style>
  </defs>
  <g id="Layer_1-2" data-name="Layer 1">
    <path class="cls-1" d="m20.63,0C9.23,0,0,9.23,0,20.63c0,12.49,10.61,26.89,20.63,46.08,9.94-19.04,20.63-33.61,20.63-46.08C41.25,9.23,32.02,0,20.63,0Zm.05,36.26c-8.23,0-14.9-6.67-14.9-14.9s6.67-14.9,14.9-14.9,14.9,6.67,14.9,14.9-6.67,14.9-14.9,14.9Z"/>
    <path class="cls-1" d="m24.11,14c1.02,0,1.84-.82,1.84-1.84s-.82-1.84-1.84-1.84-1.84.82-1.84,1.84.82,1.84,1.84,1.84Zm1.04,2.46l-2.37-1.87c-.66-.52-1.6-.53-2.27-.01l-3.19,2.46c-1.18.91-1.09,2.72.16,3.51l2.32,1.47v4.25c0,.68.55,1.23,1.23,1.23s1.23-.55,1.23-1.23v-4.91c0-.41-.2-.79-.54-1.02l-1.64-1.09,2.31-1.86,1.56,1.25c.22.17.49.27.77.27h2.46c.68,0,1.23-.55,1.23-1.23s-.55-1.23-1.23-1.23h-2.03Zm-14.24,8.59c0-1.53,1.24-2.76,2.76-2.76s2.76,1.24,2.76,2.76-1.24,2.76-2.76,2.76-2.76-1.24-2.76-2.76h0Zm7.67,0c0-2.71-2.2-4.91-4.91-4.91s-4.91,2.2-4.91,4.91,2.2,4.91,4.91,4.91,4.91-2.2,4.91-4.91Zm7.06,0c0-1.53,1.24-2.76,2.76-2.76s2.76,1.24,2.76,2.76-1.24,2.76-2.76,2.76-2.76-1.24-2.76-2.76h0Zm7.67,0c0-2.71-2.2-4.91-4.91-4.91s-4.91,2.2-4.91,4.91,2.2,4.91,4.91,4.91,4.91-2.2,4.91-4.91Z"/>
  </g>
</svg>